<?xml version="1.0" encoding="UTF-8"?>
<svg id="Capa_2" data-name="Capa 2" xmlns="http://www.w3.org/2000/svg" viewBox="0 0 456.62 81.43">
  <defs>
    <style>
      .cls-1 {
        fill: #3498db;
      }
    </style>
  </defs>
  <g id="Capa_1-2" data-name="Capa 1">
    <g>
      <path class="cls-1" d="m69.34,63.67c-3.89-2.16-6.94-5.21-9.16-9.16-2.22-3.95-3.33-8.51-3.33-13.67s1.14-9.72,3.42-13.67c2.28-3.95,5.39-7,9.34-9.16,3.95-2.16,8.35-3.24,13.22-3.24s9.27,1.08,13.22,3.24c3.95,2.16,7.06,5.21,9.34,9.16,2.28,3.95,3.42,8.51,3.42,13.67s-1.17,9.72-3.51,13.67c-2.34,3.95-5.5,7-9.48,9.16-3.98,2.16-8.43,3.24-13.35,3.24s-9.24-1.08-13.13-3.24Zm19.64-9.57c2.04-1.12,3.66-2.81,4.88-5.06,1.21-2.25,1.82-4.98,1.82-8.2,0-4.8-1.26-8.49-3.78-11.07-2.52-2.58-5.61-3.87-9.25-3.87s-6.7,1.29-9.16,3.87c-2.46,2.58-3.69,6.28-3.69,11.07s1.2,8.49,3.6,11.08c2.4,2.58,5.42,3.87,9.07,3.87,2.31,0,4.48-.56,6.52-1.69Z"/>
      <path class="cls-1" d="m155.53,20.92c3.71,3.8,5.56,9.1,5.56,15.91v29.62h-12.76v-27.89c0-4.01-1-7.09-3.01-9.25-2.01-2.16-4.74-3.24-8.2-3.24s-6.3,1.08-8.34,3.24c-2.04,2.16-3.05,5.24-3.05,9.25v27.89h-12.76V15.95h12.76v6.29c1.7-2.19,3.87-3.9,6.52-5.15,2.64-1.24,5.54-1.87,8.7-1.87,6.02,0,10.88,1.9,14.58,5.7Z"/>
      <path class="cls-1" d="m168.29,28.63c2.04-3.95,4.8-6.99,8.29-9.12,3.49-2.13,7.4-3.19,11.71-3.19,3.77,0,7.06.76,9.89,2.28,2.83,1.52,5.09,3.43,6.79,5.74v-7.2h12.85v50.5h-12.85v-7.38c-1.64,2.37-3.91,4.33-6.79,5.88-2.89,1.55-6.21,2.32-9.98,2.32-4.25,0-8.13-1.09-11.62-3.28-3.5-2.19-6.26-5.27-8.29-9.25-2.04-3.98-3.05-8.55-3.05-13.72s1.02-9.63,3.05-13.58Zm34.87,5.79c-1.22-2.22-2.86-3.92-4.92-5.1-2.07-1.19-4.28-1.78-6.65-1.78s-4.56.58-6.56,1.73c-2.01,1.15-3.63,2.84-4.88,5.06-1.25,2.22-1.87,4.85-1.87,7.88s.62,5.7,1.87,7.98c1.25,2.28,2.89,4.03,4.92,5.24,2.04,1.22,4.21,1.82,6.52,1.82s4.59-.59,6.65-1.78c2.06-1.19,3.71-2.89,4.92-5.1,1.21-2.22,1.82-4.88,1.82-7.98s-.61-5.76-1.82-7.98Z"/>
      <path class="cls-1" d="m240.84,27.44v24.43c0,1.7.41,2.93,1.23,3.69.82.76,2.2,1.14,4.15,1.14h5.92v10.76h-8.02c-10.76,0-16.13-5.23-16.13-15.68v-24.34h-6.02v-10.48h6.02V4.47h12.85v12.49h11.3v10.48h-11.3Z"/>
      <path class="cls-1" d="m295.43,18.73c2.98,1.67,5.3,4.13,6.97,7.38,1.67,3.25,2.51,7.16,2.51,11.71v29.62h-12.76v-27.89c0-4.01-1-7.09-3.01-9.25-2.01-2.16-4.74-3.24-8.2-3.24s-6.3,1.08-8.34,3.24c-2.04,2.16-3.05,5.24-3.05,9.25v27.89h-12.76V0h12.76v23.24c1.64-2.19,3.83-3.9,6.56-5.15,2.73-1.24,5.77-1.87,9.12-1.87,3.83,0,7.23.84,10.21,2.51Z"/>
      <path class="cls-1" d="m312.6,27.44c2.04-3.95,4.8-6.99,8.29-9.12,3.49-2.13,7.4-3.19,11.71-3.19,3.77,0,7.06.76,9.89,2.28,2.83,1.52,5.09,3.43,6.79,5.74v-7.2h12.85v50.5h-12.85v-7.38c-1.64,2.37-3.91,4.33-6.79,5.88-2.89,1.55-6.21,2.32-9.98,2.32-4.25,0-8.13-1.09-11.62-3.28-3.5-2.19-6.26-5.27-8.29-9.25-2.04-3.98-3.05-8.55-3.05-13.72s1.02-9.63,3.05-13.58Zm34.87,5.79c-1.22-2.22-2.86-3.92-4.92-5.1-2.07-1.19-4.28-1.78-6.65-1.78s-4.56.58-6.56,1.73c-2.01,1.15-3.63,2.84-4.88,5.06-1.25,2.22-1.87,4.85-1.87,7.88s.62,5.7,1.87,7.98c1.25,2.28,2.89,4.03,4.92,5.24,2.04,1.22,4.21,1.82,6.52,1.82s4.59-.59,6.65-1.78c2.06-1.19,3.71-2.89,4.92-5.1,1.21-2.22,1.82-4.88,1.82-7.98s-.61-5.76-1.82-7.98Z"/>
      <path class="cls-1" d="m449.56,40.82c-5.09-1.95-9.54.67-12.5,4.81-3.61,5.06-4.55,11.21-3.36,17.24.27,1.38.69,2.73,1.07,4.19.18.71-5.26.92-5.84.95-3.57.16-7.5-.14-10.37-2.51-1.74-1.44-2.88-3.52-3.5-5.69-.71-2.53-.79-5.22-.69-7.83.18-4.83.51-9.65.52-14.49,0-.33,0-.5,0-.64,0-6.81-1.85-12.11-5.56-15.91-3.71-3.8-8.57-5.7-14.58-5.7-3.16,0-6.06.62-8.7,1.87-2.64,1.25-4.82,2.96-6.52,5.15v-6.29h-12.76v50.5h12.76v-27.89c0-4.01,1.02-7.09,3.05-9.25,2.04-2.16,4.82-3.24,8.34-3.24s6.2,1.08,8.2,3.24c2,2.16,3.01,5.24,3.01,9.25v6.85c0,3.7-.02,3.97,0,4.74.15,6.66.5,14.58,4.68,20.1,2.02,2.66,4.86,4.62,7.92,5.97,5.23,2.29,10.96,3.27,16.61,2.37,1.77-.28,3.51-.72,5.21-1.28.76-.25,1.7-.87,2.48-.92,1.03-.07,1.4.63,2.21,1.29,2.14,1.75,4.45,2.6,6.66,3.23,1.33.38,3.41.75,6.19.35-.47-1.56-.72-2.84-.87-3.73-.18-1.13-.26-2.05-.61-3.58-.17-.76-.35-1.37-.46-1.77-.48-.07-1.03-.18-1.63-.37-1.07-.35-1.9-.83-2.49-1.24,4.22-5.02,7.99-10.45,8.53-17.2.44-5.42-1.66-10.51-7.01-12.55Zm-2.49,14.95c-.73,2.35-2.28,4.33-4.13,5.91-.04-.3-.04-.61-.12-.9-.56-2.08-.58-4.26.03-6.33.39-1.35,1.46-4.6,3.43-3.85,1.89.72,1.22,3.76.78,5.16Z"/>
      <path class="cls-1" d="m38.13,3.81s0,44.56,0,44.66c0,2.52-.71,5.13-2.72,6.8s-4.93,2.32-7.48,1.61c-5-1.38-6.21-6.28-6.71-10.82-.19-1.74-.17-2.6-.19-3.12-.02-.75.42-2.63.11-3.26-.35-.69,2,4.88,6.25,7.31,1.59.91,3.18,1.2,4.36,1.29.36-1.14.71-2.64.84-4.42.13-1.8,0-3.35-.18-4.55-2.1-1.31-3.53-2.75-4.42-3.78-1.1-1.28-3.44-4.6-4.09-8.16-.25-1.36-.3-2.74-.24-4.12.08-1.72.09-2.12-1.68-2.46-1.78-.35-3.61-.7-5.41-.93-1.72-.23-1.75.49-2.32,2-1.3,3.41-3.28,6.57-5.99,9.04-.69.63-1.8,1.38-4.03,2.9-1.59,1.08-2.94,1.93-3.9,2.52-.14,1.01-.25,2.12-.3,3.31-.06,1.54-.02,2.96.08,4.22,1.08.07,2.42.04,3.9-.29,4.21-.93,6.84-3.63,7.9-4.87-2.95,9.88-.87,19.8,5.46,25,4.48,3.68,9.97,4.09,11.95,4.23,2.68.2,10.12.6,15.88-4.59,3.9-3.51,5.58-8.65,5.76-13.79.01-.36.02-.72.02-1.09V3.81h-12.85Z"/>
      <circle class="cls-1" cx="435.45" cy="31.56" r="6.96"/>
    </g>
  </g>
</svg>